<svg aria-hidden="true" style="position: absolute; width: 0; height: 0; overflow: hidden;" version="1.1" xmlns="http://www.w3.org/2000/svg" xmlns:xlink="http://www.w3.org/1999/xlink">
  <defs>
    <symbol id="icon-logo" viewBox="0 0 66 32">
			<path fill="#fff" style="fill: var(--color1, #fff)" d="M31.043 15.533h-3.242l-1.692 7.78h3.492c2.512 0 3.258-1.383 3.267-2.475 0.008-0.951-0.532-1.34-1.042-1.507l0.017-0.086c0.714-0.157 1.582-0.74 1.591-1.94 0.009-1.156-0.885-1.772-2.392-1.772zM28.412 21.725l0.343-1.545h1.379c0.527 0 0.839 0.216 0.836 0.665-0.004 0.465-0.358 0.881-1.104 0.881h-1.453zM29.097 18.591l0.321-1.47h1.272c0.527 0 0.818 0.2 0.815 0.627-0.004 0.443-0.337 0.843-1.098 0.843h-1.309z"></path>
			<path fill="#fff" style="fill: var(--color1, #fff)" d="M34.446 15.533l-1.692 7.78h5.574l0.37-1.686h-3.551l1.321-6.094h-2.023z"></path>
			<path fill="#fff" style="fill: var(--color1, #fff)" d="M42.262 15.533l-3.814 7.618-0.033 0.162h1.922l0.748-1.621h2.273l0.045 1.621h1.842l0.033-0.162-0.503-7.618h-2.512zM41.842 20.060l1.311-2.837h0.085l0.073 2.837h-1.469z"></path>
			<path fill="#fff" style="fill: var(--color1, #fff)" d="M49.103 15.533h-2.188l-1.692 7.78h2.693c3.391 0 4.502-2.529 4.52-4.69 0.016-2.005-1.3-3.090-3.334-3.090zM47.574 21.671l0.968-4.495h0.484c0.937 0 1.47 0.519 1.462 1.507-0.012 1.443-0.738 2.988-2.292 2.988h-0.623z"></path>
			<path fill="#fff" style="fill: var(--color1, #fff)" d="M53.56 15.533l-1.691 7.78h5.802l0.343-1.588h-3.822l0.337-1.534h3.215l0.343-1.588h-3.21l0.321-1.48h3.747l0.343-1.588h-5.727z"></path>
			<path fill="#fff" style="fill: var(--color1, #fff)" d="M34.163 6.528l-0.359 1.664h2.204l-1.332 6.116h2.001l1.332-6.116h2.204l0.359-1.664h-6.409z"></path>
			<path fill="#fff" style="fill: var(--color1, #fff)" d="M43.964 6.528h-3.146l-1.692 7.78h1.959l0.663-3.058h0.106l1.577 3.058h1.985l0.033-0.162-1.59-2.885c1.939-0.162 2.656-1.28 2.667-2.637 0.011-1.34-0.978-2.096-2.565-2.096zM42.058 9.823l0.376-1.707h1.251c0.607 0 0.951 0.243 0.947 0.719-0.004 0.497-0.359 0.989-1.243 0.989h-1.331z"></path>
			<path fill="#fff" style="fill: var(--color1, #fff)" d="M48.889 6.528l-3.814 7.618-0.033 0.162h1.922l0.748-1.621h2.273l0.045 1.621h1.842l0.033-0.162-0.502-7.618h-2.513zM48.469 11.055l1.311-2.836h0.085l0.073 2.837h-1.469z"></path>
			<path fill="#fff" style="fill: var(--color1, #fff)" d="M55.73 6.528h-2.188l-1.692 7.78h2.694c3.391 0 4.502-2.529 4.52-4.69 0.017-2.005-1.3-3.090-3.334-3.090zM54.201 12.665l0.968-4.495h0.484c0.937 0 1.47 0.519 1.462 1.507-0.011 1.443-0.737 2.988-2.291 2.988h-0.623z"></path>
			<path fill="#fff" style="fill: var(--color1, #fff)" d="M60.188 6.528l-1.692 7.78h5.802l0.343-1.588h-3.822l0.337-1.534h3.215l0.343-1.588h-3.209l0.321-1.48h3.748l0.343-1.588h-5.727z"></path>
			<path fill="#57e1ff" style="fill: var(--color2, #57e1ff)" d="M14.791 18.795l4.765-8.253h-9.53l4.765 8.253z"></path>
			<path fill="#5e47ff" style="fill: var(--color3, #5e47ff)" d="M12.669 23.334l-12.669-21.871 6.293 5.050 8.044 13.933-1.668 2.889z"></path>
			<path fill="#5e47ff" style="fill: var(--color3, #5e47ff)" d="M24.562 10.092l-12.607 21.908 1.227-7.975 8.044-13.933h3.336z"></path>
			<path fill="#5e47ff" style="fill: var(--color3, #5e47ff)" d="M7.222 6.552l25.276-0.036-7.52 2.925h-16.088l-1.668-2.889z"></path>
    </symbol>

    <symbol id="logo-header-desktop" viewBox="0 0 66 32">
      <path fill="var(--color1, #fff)" d="M31.044 15.533h-3.242l-1.692 7.78h3.491c2.512 0 3.259-1.383 3.267-2.475.008-.95-.532-1.34-1.041-1.507l.017-.087c.715-.157 1.581-.74 1.592-1.939.009-1.157-.885-1.772-2.392-1.772zm-2.632 6.191.343-1.545h1.379c.526 0 .839.216.835.665-.003.465-.358.881-1.103.881h-1.453zm.685-3.133.32-1.47h1.272c.527 0 .819.2.815.627-.003.443-.337.843-1.098.843h-1.309zm5.349-3.058-1.691 7.78h5.574l.37-1.686h-3.551l1.322-6.095h-2.023zm7.815 0-3.814 7.618-.033.162h1.922l.748-1.621h2.273l.045 1.621h1.842l.033-.162-.503-7.618h-2.513zm-.419 4.528 1.312-2.837h.085l.073 2.837h-1.469z"/>
      <path fill="var(--color1, #fff)" d="M49.103 15.533h-2.188l-1.691 7.78h2.694c3.391 0 4.502-2.529 4.52-4.69.016-2.004-1.3-3.09-3.334-3.09zm-1.529 6.137.968-4.495h.485c.937 0 1.47.518 1.462 1.507-.012 1.443-.737 2.988-2.292 2.988h-.623zm5.986-6.137-1.691 7.78h5.802l.343-1.588h-3.822l.337-1.535h3.215l.343-1.588h-3.21l.321-1.48h3.747l.343-1.588h-5.727zM34.163 6.527l-.36 1.664h2.204l-1.332 6.117h2.001l1.333-6.117h2.203l.359-1.664h-6.408zm9.801 0h-3.145l-1.691 7.78h1.959l.663-3.058h.106l1.578 3.059h1.985l.033-.162-1.59-2.885c1.939-.162 2.656-1.28 2.667-2.636.011-1.34-.978-2.096-2.565-2.096zm-1.905 3.296.375-1.707h1.251c.607 0 .951.243.947.719-.004.497-.359.989-1.242.989h-1.331z"/>
      <path fill="var(--color1, #fff)" d="m48.889 6.527-3.814 7.618-.033.162h1.922l.748-1.621h2.273l.045 1.621h1.842l.033-.162-.502-7.618H48.89zm-.42 4.528 1.311-2.837h.085l.074 2.837H48.47z"/>
      <path fill="var(--color1, #fff)" d="M55.73 6.527h-2.188l-1.692 7.78h2.694c3.391 0 4.502-2.529 4.52-4.689.017-2.005-1.3-3.09-3.334-3.09zm-1.529 6.138.968-4.495h.484c.937 0 1.47.518 1.462 1.507-.011 1.443-.737 2.988-2.291 2.988h-.623zm5.987-6.138-1.692 7.78h5.802l.343-1.588h-3.822l.337-1.535h3.215l.343-1.588h-3.209l.321-1.48h3.748l.343-1.589H60.19z"/>
      <path fill="var(--color2, #5e47ff)" d="M12.669 23.334 0 1.462l6.293 5.05 8.044 13.932-1.668 2.889zm11.893-13.242L11.955 31.999l1.227-7.975 8.044-13.932h3.335zM7.221 6.552l25.276-.036-7.52 2.925H8.889L7.221 6.552z"/>
      <path fill="var(--color2, #5e47ff)" d="M12.669 23.334 0 1.462l6.293 5.05 8.044 13.932-1.668 2.889zm11.893-13.242L11.955 31.999l1.227-7.975 8.044-13.932h3.335z"/>
      <path fill="var(--color3, #57e1ff)" d="m14.791 18.795 4.765-8.254h-9.53l4.765 8.254z"/>
      <path fill="var(--color2, #5e47ff)" d="M12.669 23.334 0 1.462l6.293 5.05 8.044 13.932-1.668 2.889zM24.562 10.092 11.955 31.999l1.227-7.975 8.044-13.932h3.335zM7.221 6.552l25.276-.036-7.52 2.925H8.889L7.221 6.552z"/>
    </symbol>
    <symbol id="logo-footer-mob" viewBox="0 0 50 32">
      <path fill="#fff" style="fill: var(--color2, #fff)" d="M26.497 15.154h-2.201l-1.148 5.281h2.37c1.706 0 2.212-0.939 2.218-1.68 0.005-0.645-0.361-0.91-0.707-1.023l0.011-0.059c0.485-0.106 1.074-0.503 1.080-1.317 0.006-0.785-0.601-1.203-1.624-1.203zM24.711 19.358l0.233-1.049h0.936c0.358 0 0.57 0.147 0.567 0.451-0.002 0.315-0.243 0.598-0.749 0.598h-0.987zM25.176 17.23l0.218-0.998h0.864c0.358 0 0.555 0.136 0.553 0.425-0.003 0.301-0.229 0.572-0.746 0.572h-0.889zM28.807 15.154l-1.148 5.281h3.784l0.251-1.144h-2.411l0.897-4.137h-1.373zM34.113 15.154l-2.589 5.172-0.023 0.11h1.304l0.508-1.1h1.543l0.031 1.1h1.25l0.023-0.11-0.341-5.172h-1.706zM33.828 18.228l0.89-1.925h0.058l0.050 1.925h-0.997z"></path>
      <path fill="#fff" style="fill: var(--color2, #fff)" d="M38.757 15.154h-1.485l-1.148 5.281h1.828c2.302 0 3.057-1.717 3.068-3.183 0.011-1.361-0.883-2.098-2.263-2.098zM37.719 19.321l0.657-3.052h0.329c0.636 0 0.998 0.352 0.993 1.023-0.008 0.979-0.5 2.028-1.556 2.028h-0.423zM41.783 15.154l-1.148 5.281h3.939l0.233-1.078h-2.594l0.229-1.041h2.182l0.233-1.078h-2.179l0.218-1.005h2.544l0.233-1.078h-3.888zM28.615 9.041l-0.244 1.13h1.496l-0.904 4.152h1.359l0.904-4.152h1.496l0.244-1.13h-4.351zM35.268 9.041h-2.136l-1.148 5.281h1.33l0.45-2.076h0.072l1.071 2.076h1.348l0.023-0.11-1.079-1.958c1.316-0.11 1.803-0.869 1.81-1.79 0.008-0.91-0.664-1.423-1.741-1.423zM33.974 11.279l0.255-1.159h0.849c0.412 0 0.645 0.165 0.643 0.488-0.003 0.337-0.244 0.671-0.844 0.671h-0.903z"></path>
      <path fill="#fff" style="fill: var(--color2, #fff)" d="M38.612 9.041l-2.589 5.172-0.023 0.11h1.304l0.507-1.1h1.543l0.031 1.1h1.25l0.023-0.11-0.341-5.172h-1.706zM38.327 12.115l0.89-1.925h0.058l0.049 1.925h-0.997z"></path>
      <path fill="#fff" style="fill: var(--color2, #fff)" d="M43.256 9.041h-1.485l-1.148 5.281h1.828c2.302 0 3.056-1.717 3.068-3.183 0.011-1.361-0.883-2.098-2.263-2.098zM42.218 13.208l0.657-3.052h0.329c0.636 0 0.998 0.352 0.993 1.023-0.008 0.979-0.501 2.028-1.556 2.028h-0.423zM46.282 9.041l-1.148 5.281h3.938l0.233-1.078h-2.594l0.229-1.041h2.182l0.233-1.079h-2.179l0.218-1.005h2.544l0.233-1.078h-3.888z"></path>
      <path fill="#5e47ff" style="fill: var(--color3, #5e47ff)" d="M14.024 20.45l-8.6-14.847 4.272 3.428 5.461 9.458-1.132 1.961zM22.098 11.461l-8.558 14.872 0.833-5.414 5.461-9.458h2.264zM10.326 9.058l17.158-0.024-5.105 1.985h-10.921l-1.132-1.961z"></path>
      <path fill="#5e47ff" style="fill: var(--color3, #5e47ff)" d="M14.024 20.45l-8.6-14.847 4.272 3.428 5.461 9.458-1.132 1.961zM22.098 11.461l-8.558 14.872 0.833-5.414 5.461-9.458h2.264z"></path>
      <path fill="#57e1ff" style="fill: var(--color4, #57e1ff)" d="M15.465 17.369l3.235-5.603h-6.469l3.235 5.603z"></path>
      <path fill="#5e47ff" style="fill: var(--color3, #5e47ff)" d="M14.024 20.45l-8.6-14.847 4.272 3.428 5.461 9.458-1.132 1.961z"></path>
      <path fill="#5e47ff" style="fill: var(--color3, #5e47ff)" d="M22.098 11.461l-8.558 14.872 0.833-5.414 5.461-9.458h2.264z"></path>
      <path fill="#5e47ff" style="fill: var(--color3, #5e47ff)" d="M10.326 9.058l17.158-0.024-5.105 1.985h-10.921l-1.132-1.961z"></path>
    </symbol>
    <symbol id="logo-footer-desktop" viewBox="0 0 50 32">
      <path fill="var(--color1, #fff)" d="M26.497 15.154h-2.201l-1.148 5.281h2.37c1.706 0 2.212-.939 2.218-1.68.005-.645-.361-.91-.707-1.023l.011-.059c.485-.106 1.074-.503 1.08-1.317.006-.785-.601-1.203-1.624-1.203zm-1.786 4.204.233-1.049h.936c.358 0 .57.147.567.451-.002.315-.243.598-.749.598h-.987zm.465-2.128.218-.998h.864c.358 0 .555.136.553.425-.003.301-.229.572-.746.572h-.889zm3.631-2.076-1.148 5.281h3.784l.251-1.144h-2.411l.897-4.137h-1.373zm5.306 0-2.589 5.172-.023.11h1.304l.508-1.1h1.543l.031 1.1h1.25l.023-.11-.341-5.172h-1.706zm-.285 3.074.89-1.925h.058l.05 1.925h-.997z"/>
      <path fill="var(--color1, #fff)" d="M38.757 15.154h-1.485l-1.148 5.281h1.828c2.302 0 3.057-1.717 3.068-3.183.011-1.361-.883-2.098-2.263-2.098zm-1.038 4.167.657-3.052h.329c.636 0 .998.352.993 1.023-.008.979-.5 2.028-1.556 2.028h-.423zm4.064-4.167-1.148 5.281h3.939l.233-1.078h-2.594l.229-1.041h2.182l.233-1.078h-2.179l.218-1.005h2.544l.233-1.078h-3.888zM28.615 9.041l-.244 1.13h1.496l-.904 4.152h1.359l.904-4.152h1.496l.244-1.13h-4.351zm6.653 0h-2.136l-1.148 5.281h1.33l.45-2.076h.072l1.071 2.076h1.348l.023-.11-1.079-1.958c1.316-.11 1.803-.869 1.81-1.79.008-.91-.664-1.423-1.741-1.423zm-1.294 2.238.255-1.159h.849c.412 0 .645.165.643.488-.003.337-.244.671-.844.671h-.903z"/>
      <path fill="var(--color1, #fff)" d="m38.612 9.041-2.589 5.172-.023.11h1.304l.507-1.1h1.543l.031 1.1h1.25l.023-.11-.341-5.172h-1.706zm-.285 3.074.89-1.925h.058l.049 1.925h-.997z"/>
      <path fill="var(--color1, #fff)" d="M43.256 9.041h-1.485l-1.148 5.281h1.828c2.302 0 3.056-1.717 3.068-3.183.011-1.361-.883-2.098-2.263-2.098zm-1.038 4.167.657-3.052h.329c.636 0 .998.352.993 1.023-.008.979-.501 2.028-1.556 2.028h-.423zm4.064-4.167-1.148 5.281h3.938l.233-1.078h-2.594l.229-1.041h2.182l.233-1.079h-2.179l.218-1.005h2.544l.233-1.078h-3.888z"/>
      <path fill="var(--color2, #5e47ff)" d="m14.024 20.45-8.6-14.847 4.272 3.428 5.461 9.458-1.132 1.961zm8.074-8.989L13.54 26.333l.833-5.414 5.461-9.458h2.264zM10.326 9.058l17.158-.024-5.105 1.985H11.458l-1.132-1.961z"/>
      <path fill="var(--color2, #5e47ff)" d="m14.024 20.45-8.6-14.847 4.272 3.428 5.461 9.458-1.132 1.961zm8.074-8.989L13.54 26.333l.833-5.414 5.461-9.458h2.264z"/>
      <path fill="var(--color3, #57e1ff)" d="m15.465 17.369 3.235-5.603h-6.469l3.235 5.603z"/>
      <path fill="var(--color2, #5e47ff)" d="m14.024 20.45-8.6-14.847 4.272 3.428 5.461 9.458-1.132 1.961zM22.098 11.461 13.54 26.333l.833-5.414 5.461-9.458h2.264zM10.326 9.058l17.158-.024-5.105 1.985H11.458l-1.132-1.961z"/>
    </symbol>
    <symbol id="checkbox-top" viewBox="0 0 32 32">
      <path fill="none" stroke="var(--color1, #fff)" stroke-linejoin="round" stroke-linecap="round" stroke-width="1.867" d="m8 19.333 8-8 8 8"/>
    </symbol>
    <symbol id="checkbox-down" viewBox="0 0 32 32">
      <path fill="none" stroke-linejoin="round" stroke-linecap="round" stroke-width="1.867" d="m8 12.667 8 8 8-8"/>
    </symbol>
    <symbol id="checkbox" viewBox="0 0 32 32">
      <path fill="none" stroke-linejoin="round" stroke-linecap="round" stroke-width="3.733" d="m5.333 17.501 9.899 9.899 14-21"/>
    </symbol>
    <symbol id="burger-close" viewBox="0 0 32 32">
      <path fill="var(--color1, #fff)" d="M8.74 8.74a.93.93 0 0 1 1.32 0l13.2 13.2a.933.933 0 0 1-1.32 1.32l-13.2-13.2a.93.93 0 0 1 0-1.32z"/>
      <path fill="var(--color1, #fff)" d="M8.74 23.26a.93.93 0 0 1 0-1.32l13.2-13.2a.933.933 0 0 1 1.32 1.32l-13.2 13.2a.93.93 0 0 1-1.32 0z"/>
    </symbol>
    <symbol id="burger-open" viewBox="0 0 32 32">
      <path fill="var(--color5, #e7f7f8)" d="M4.4 9.333c0-.515.418-.933.933-.933h21.334a.933.933 0 1 1 0 1.868H5.333a.933.933 0 0 1-.933-.933v-.001zM4.4 16c0-.515.418-.933.933-.933h21.334a.933.933 0 0 1 0 1.866H5.333A.933.933 0 0 1 4.4 16zm0 6.666c0-.515.418-.933.933-.933h21.334a.933.933 0 1 1 0 1.866H5.333a.933.933 0 0 1-.933-.933v-.001z"/>
    </symbol>
		<symbol id="icon-arrow_bottom" viewBox="0 0 55 32">
		<path d="M54.714 4.364l-27.078 27.078-27.078-27.078 3.095-3.095 23.983 23.985 23.983-23.983 3.095 3.092z"></path>
		</symbol>

		<symbol id="icon-frame_1" viewBox="0 0 32 32">
<path fill="#6a54ff" style="fill: #6a54ff" d="M4 1.714h14.286c1.262 0 2.286 1.023 2.286 2.286v14.286c0 1.262-1.023 2.286-2.286 2.286h-14.286c-1.262 0-2.286-1.023-2.286-2.286v-14.286c0-1.262 1.023-2.286 2.286-2.286z"></path>
<path fill="#57e1ff" style="fill: #57e1ff" d="M13.714 11.429h14.286c1.262 0 2.286 1.023 2.286 2.286v14.286c0 1.262-1.023 2.286-2.286 2.286h-14.286c-1.262 0-2.286-1.023-2.286-2.286v-14.286c0-1.262 1.023-2.286 2.286-2.286z"></path>
<path fill="#fff" opacity="0.5" style="fill: #fff" d="M11.429 13.714c0-1.262 1.023-2.286 2.286-2.286h6.857v6.857c0 1.262-1.023 2.286-2.286 2.286h-4.571c-1.262 0-2.286-1.023-2.286-2.286v-4.571z"></path>
<path fill="none" stroke="#030718" stroke-width="0.8571" stroke-miterlimit="4" stroke-linecap="butt" stroke-linejoin="miter" style="stroke: #030718" d="M4 1.714h14.286c1.262 0 2.286 1.023 2.286 2.286v14.286c0 1.262-1.023 2.286-2.286 2.286h-14.286c-1.262 0-2.286-1.023-2.286-2.286v-14.286c0-1.262 1.023-2.286 2.286-2.286z"></path>
<path fill="none" stroke="#030718" stroke-width="0.8571" stroke-miterlimit="4" stroke-linecap="butt" stroke-linejoin="miter" style="stroke: #030718" d="M13.714 11.429h14.286c1.262 0 2.286 1.023 2.286 2.286v14.286c0 1.262-1.023 2.286-2.286 2.286h-14.286c-1.262 0-2.286-1.023-2.286-2.286v-14.286c0-1.262 1.023-2.286 2.286-2.286z"></path>
</symbol>

<symbol id="icon-frame_2" viewBox="0 0 32 32">
<path fill="#6a54ff" style="fill: var(--color1, #6a54ff)" d="M1.714 5.714c0-1.262 1.023-2.286 2.286-2.286h24c1.262 0 2.286 1.023 2.286 2.286v3.429h-28.571v-3.429z"></path>
<path fill="#6a54ff" style="fill: var(--color1, #6a54ff)" d="M16.571 10.286h13.714v16c0 1.262-1.023 2.286-2.286 2.286h-11.429v-18.286z"></path>
<path fill="#57e1ff" style="fill: var(--color2, #57e1ff)" d="M1.714 10.286h13.714v18.286h-11.429c-1.262 0-2.286-1.023-2.286-2.286v-16z"></path>
<path fill="none" stroke="#000" stroke-width="1.1429" stroke-miterlimit="4" stroke-linecap="round" stroke-linejoin="round" style="stroke: var(--color3, #000)" d="M10 22.857l-3.429-3.429 3.429-3.429"></path>
<path fill="#abf0ff" style="fill: var(--color4, #abf0ff)" d="M5.714 6.286c0 0.631-0.512 1.143-1.143 1.143s-1.143-0.512-1.143-1.143c0-0.631 0.512-1.143 1.143-1.143s1.143 0.512 1.143 1.143z"></path>
<path fill="#abf0ff" style="fill: var(--color4, #abf0ff)" d="M9.143 6.286c0 0.631-0.512 1.143-1.143 1.143s-1.143-0.512-1.143-1.143c0-0.631 0.512-1.143 1.143-1.143s1.143 0.512 1.143 1.143z"></path>
<path fill="#abf0ff" style="fill: var(--color4, #abf0ff)" d="M12.571 6.286c0 0.631-0.512 1.143-1.143 1.143s-1.143-0.512-1.143-1.143c0-0.631 0.512-1.143 1.143-1.143s1.143 0.512 1.143 1.143z"></path>
</symbol>

<symbol id="icon-frame_3" viewBox="0 0 32 32">
<path fill="#6a54ff" style="fill: var(--color1, #6a54ff)" d="M2.286 9.646c0-1.168 0.881-2.148 2.042-2.273l18.286-1.959c1.351-0.145 2.529 0.914 2.529 2.273v10.096c0 1.168-0.881 2.148-2.042 2.273l-18.286 1.959c-1.351 0.145-2.529-0.914-2.529-2.273v-10.096z"></path>
<path fill="#abf0ff" style="fill: var(--color2, #abf0ff)" d="M18.286 8c0 1.578-1.279 2.857-2.857 2.857s-2.857-1.279-2.857-2.857c0-1.578 1.279-2.857 2.857-2.857s2.857 1.279 2.857 2.857z"></path>
<path fill="#abf0ff" style="fill: var(--color2, #abf0ff)" d="M25.143 2.857c0 1.578-1.279 2.857-2.857 2.857s-2.857-1.279-2.857-2.857c0-1.578 1.279-2.857 2.857-2.857s2.857 1.279 2.857 2.857z"></path>
<path fill="#57e1ff" stroke="#030718" stroke-width="1.1429" stroke-miterlimit="4" stroke-linecap="butt" stroke-linejoin="miter" style="fill: var(--color3, #57e1ff); stroke: var(--color4, #030718)" d="M4.571 8.571h22.857c1.578 0 2.857 1.279 2.857 2.857v16c0 1.578-1.279 2.857-2.857 2.857h-22.857c-1.578 0-2.857-1.279-2.857-2.857v-16c0-1.578 1.279-2.857 2.857-2.857z"></path>
<path fill="#030718" style="fill: var(--color4, #030718)" d="M27.429 19.429c0 0.947-0.767 1.714-1.714 1.714s-1.714-0.767-1.714-1.714c0-0.947 0.767-1.714 1.714-1.714s1.714 0.767 1.714 1.714z"></path>
</symbol>

<symbol id="icon-frame_4" viewBox="0 0 32 32">
<path fill="#6a54ff" style="fill: var(--color1, #6a54ff)" d="M-13.714 8h14.857c1.262 0 2.286 1.023 2.286 2.286v11.429c0 1.262-1.023 2.286-2.286 2.286h-14.857c-1.262 0-2.286-1.023-2.286-2.286v-11.429c0-1.262 1.023-2.286 2.286-2.286z"></path>
<path fill="#6a54ff" style="fill: var(--color1, #6a54ff)" d="M30.857 8h14.857c1.262 0 2.286 1.023 2.286 2.286v11.429c0 1.262-1.023 2.286-2.286 2.286h-14.857c-1.262 0-2.286-1.023-2.286-2.286v-11.429c0-1.262 1.023-2.286 2.286-2.286z"></path>
<path fill="#57e1ff" style="fill: var(--color2, #57e1ff)" d="M6.857 6.857h18.286c1.262 0 2.286 1.023 2.286 2.286v13.714c0 1.262-1.023 2.286-2.286 2.286h-18.286c-1.262 0-2.286-1.023-2.286-2.286v-13.714c0-1.262 1.023-2.286 2.286-2.286z"></path>
<path fill="#000" style="fill: var(--color3, #000)" d="M14.198 19.82l5.365-3.059c0.404-0.237 0.605-0.356 0.681-0.506 0.081-0.161 0.081-0.35 0.001-0.511-0.075-0.151-0.277-0.271-0.682-0.512v0l-5.388-3.072c-0.412-0.229-0.619-0.343-0.788-0.331-0.179 0.013-0.341 0.108-0.439 0.259-0.092 0.142-0.092 0.378-0.092 0.849v0 6.118c0 0.474 0 0.711 0.093 0.853 0.098 0.151 0.261 0.246 0.441 0.258 0.169 0.011 0.376-0.105 0.79-0.336l0.018-0.010z"></path>
</symbol>

<symbol id="icon-frame_5" viewBox="0 0 32 32">
<path fill="#6a54ff" style="fill: var(--color1, #6a54ff)" d="M8.487 7.679c-0.69-0.69-0.67-1.827 0.133-2.382 1.483-1.025 3.189-1.749 5.031-2.085 0.96-0.175 1.778 0.615 1.778 1.591v5.679c0 1.527-1.847 2.292-2.926 1.212l-4.015-4.015zM6.845 6.77c-0.025 0.025-0.050 0.050-0.075 0.074l0.075-0.074zM7.679 8.487c-0.69-0.69-1.827-0.67-2.382 0.133-1.025 1.483-1.749 3.189-2.085 5.031-0.175 0.96 0.615 1.778 1.591 1.778h5.679c1.527 0 2.292-1.847 1.212-2.926l-4.015-4.015zM3 16l0-0.063v0.127l-0-0.063zM7.679 23.513c-0.69 0.69-1.827 0.67-2.382-0.133-1.025-1.483-1.749-3.189-2.085-5.031-0.175-0.96 0.615-1.778 1.591-1.778h5.679c1.527 0 2.292 1.846 1.212 2.926l-4.015 4.015zM6.77 25.155c0.025 0.025 0.049 0.050 0.074 0.074l-0.074-0.074zM8.487 24.321c-0.69 0.69-0.67 1.827 0.133 2.382 1.483 1.025 3.189 1.749 5.031 2.085 0.96 0.175 1.778-0.615 1.778-1.591v-5.679c0-1.527-1.847-2.292-2.926-1.212l-4.015 4.015zM20.306 12.502c-1.080 1.080-0.315 2.926 1.212 2.926h5.679c0.976 0 1.766-0.818 1.591-1.778-0.336-1.842-1.060-3.548-2.085-5.031-0.555-0.803-1.692-0.823-2.382-0.133l-4.015 4.015zM23.513 7.679c0.69-0.69 0.67-1.827-0.133-2.382-1.483-1.025-3.189-1.749-5.031-2.085-0.96-0.175-1.778 0.615-1.778 1.591v5.679c0 1.527 1.846 2.292 2.926 1.212l4.015-4.015zM26.703 23.38c-0.555 0.803-1.692 0.823-2.382 0.133l-4.015-4.015c-1.080-1.080-0.315-2.926 1.212-2.926h5.679c0.976 0 1.766 0.818 1.591 1.778-0.336 1.842-1.060 3.548-2.085 5.031zM19.498 20.306c-1.080-1.080-2.926-0.315-2.926 1.212v5.679c0 0.976 0.818 1.766 1.778 1.591 1.842-0.336 3.548-1.060 5.031-2.085 0.803-0.555 0.823-1.692 0.133-2.382l-4.015-4.015z"></path>
<path fill="#57e1ff" stroke="#000" stroke-width="0.5714" stroke-miterlimit="4" stroke-linecap="butt" stroke-linejoin="miter" style="fill: var(--color2, #57e1ff); stroke: var(--color3, #000)" d="M18.143 3c0 1.183-0.959 2.143-2.143 2.143s-2.143-0.959-2.143-2.143c0-1.183 0.959-2.143 2.143-2.143s2.143 0.959 2.143 2.143z"></path>
<path fill="#57e1ff" stroke="#000" stroke-width="0.5714" stroke-miterlimit="4" stroke-linecap="butt" stroke-linejoin="miter" style="fill: var(--color2, #57e1ff); stroke: var(--color3, #000)" d="M18.143 29c0 1.183-0.959 2.143-2.143 2.143s-2.143-0.959-2.143-2.143c0-1.183 0.959-2.143 2.143-2.143s2.143 0.959 2.143 2.143z"></path>
<path fill="#57e1ff" stroke="#000" stroke-width="0.5714" stroke-miterlimit="4" stroke-linecap="butt" stroke-linejoin="miter" style="fill: var(--color2, #57e1ff); stroke: var(--color3, #000)" d="M8.323 5.293c0.837 0.837 0.837 2.194 0 3.030s-2.194 0.837-3.030 0c-0.837-0.837-0.837-2.194 0-3.030s2.194-0.837 3.030 0z"></path>
<path fill="#57e1ff" stroke="#000" stroke-width="0.5714" stroke-miterlimit="4" stroke-linecap="butt" stroke-linejoin="miter" style="fill: var(--color2, #57e1ff); stroke: var(--color3, #000)" d="M26.707 23.677c0.837 0.837 0.837 2.194 0 3.030s-2.194 0.837-3.030 0c-0.837-0.837-0.837-2.194 0-3.030s2.194-0.837 3.030 0z"></path>
<path fill="#57e1ff" stroke="#000" stroke-width="0.5714" stroke-miterlimit="4" stroke-linecap="butt" stroke-linejoin="miter" style="fill: var(--color2, #57e1ff); stroke: var(--color3, #000)" d="M3 13.857c1.183 0 2.143 0.959 2.143 2.143s-0.959 2.143-2.143 2.143c-1.183 0-2.143-0.959-2.143-2.143s0.959-2.143 2.143-2.143z"></path>
<path fill="#57e1ff" stroke="#000" stroke-width="0.5714" stroke-miterlimit="4" stroke-linecap="butt" stroke-linejoin="miter" style="fill: var(--color2, #57e1ff); stroke: var(--color3, #000)" d="M29 13.857c1.183 0 2.143 0.959 2.143 2.143s-0.959 2.143-2.143 2.143c-1.183 0-2.143-0.959-2.143-2.143s0.959-2.143 2.143-2.143z"></path>
<path fill="#57e1ff" stroke="#000" stroke-width="0.5714" stroke-miterlimit="4" stroke-linecap="butt" stroke-linejoin="miter" style="fill: var(--color2, #57e1ff); stroke: var(--color3, #000)" d="M5.292 23.677c0.837-0.837 2.194-0.837 3.030 0s0.837 2.194 0 3.030c-0.837 0.837-2.194 0.837-3.030 0s-0.837-2.194 0-3.030z"></path>
<path fill="#57e1ff" stroke="#000" stroke-width="0.5714" stroke-miterlimit="4" stroke-linecap="butt" stroke-linejoin="miter" style="fill: var(--color2, #57e1ff); stroke: var(--color3, #000)" d="M23.677 5.293c0.837-0.837 2.194-0.837 3.030 0s0.837 2.194 0 3.030c-0.837 0.837-2.194 0.837-3.030 0s-0.837-2.194 0-3.030z"></path>
</symbol>

  </defs>
</svg>
